<?xml version="1.0" standalone="no"?><svg xmlns="http://www.w3.org/2000/svg" viewBox="0 0 1440 320"><path fill="#273036" fill-opacity="1" d="M0,128L26.7,112C53.3,96,107,64,160,48C213.3,32,267,32,320,58.7C373.3,85,427,139,480,138.7C533.3,139,587,85,640,96C693.3,107,747,181,800,192C853.3,203,907,149,960,160C1013.3,171,1067,245,1120,266.7C1173.3,288,1227,256,1280,213.3C1333.3,171,1387,117,1413,90.7L1440,64L1440,320L1413.3,320C1386.7,320,1333,320,1280,320C1226.7,320,1173,320,1120,320C1066.7,320,1013,320,960,320C906.7,320,853,320,800,320C746.7,320,693,320,640,320C586.7,320,533,320,480,320C426.7,320,373,320,320,320C266.7,320,213,320,160,320C106.7,320,53,320,27,320L0,320Z"></path></svg>